<svg xmlns="http://www.w3.org/2000/svg" xmlns:osb="http://www.openswatchbook.org/uri/2009/osb" xmlns:svg="http://www.w3.org/2000/svg" id="svg2" width="177.16" height="162.301" version="1.1"><defs id="defs4"><marker id="Arrow1Send" orient="auto" overflow="visible" refX="0" refY="0"><path id="path3774" fill-rule="evenodd" stroke="#000" stroke-width="1pt" d="M 0,0 5,-5 -12.5,0 5,5 0,0 z" transform="matrix(-0.2,0,0,-0.2,-1.2,0)"/></marker><linearGradient id="linearGradient7535" osb:paint="solid"><stop id="stop7537" offset="0" stop-color="#000" stop-opacity="1"/></linearGradient><marker id="Arrow1Mstart" orient="auto" overflow="visible" refX="0" refY="0"><path id="path3765" fill-rule="evenodd" stroke="#000" stroke-width="1pt" d="M 0,0 5,-5 -12.5,0 5,5 0,0 z" transform="matrix(0.4,0,0,0.4,4,0)"/></marker><marker id="Arrow1Mend" orient="auto" overflow="visible" refX="0" refY="0"><path id="path3768" fill-rule="evenodd" stroke="#000" stroke-width="1pt" d="M 0,0 5,-5 -12.5,0 5,5 0,0 z" transform="matrix(-0.4,0,0,-0.4,-4,0)"/></marker><marker id="Arrow1Lend" orient="auto" overflow="visible" refX="0" refY="0"><path id="path3762" fill-rule="evenodd" stroke="#000" stroke-width="1pt" d="M 0,0 5,-5 -12.5,0 5,5 0,0 z" transform="matrix(-0.8,0,0,-0.8,-10,0)"/></marker><marker id="Arrow2Lstart" orient="auto" overflow="visible" refX="0" refY="0"><path id="path3777" fill-rule="evenodd" stroke-linejoin="round" stroke-width=".625" d="M 8.7185878,4.0337352 -2.2072895,0.01601326 8.7185884,-4.0017078 c -1.7454984,2.3720609 -1.7354408,5.6174519 -6e-7,8.035443 z" transform="matrix(1.1,0,0,1.1,1.1,0)"/></marker></defs><metadata id="metadata7"/><g id="layer1" transform="translate(-179.63266,-391.69653)"><path id="path2985" fill="none" stroke="#000" stroke-linecap="butt" stroke-linejoin="miter" stroke-opacity="1" stroke-width=".759" marker-end="url(#Arrow1Mend)" marker-start="url(#Arrow1Mstart)" d="m 350.84372,403.40485 -159.50274,0 0,144.64323"/><path id="path5321" fill="none" stroke="#000" stroke-linecap="butt" stroke-linejoin="miter" stroke-opacity="1" stroke-width="1" d="M 313.14729,416.97623 207.33381,522.78971"/><path id="path5323" fill="none" stroke="#000" stroke-dasharray="3 1" stroke-dashoffset="0" stroke-linecap="butt" stroke-linejoin="miter" stroke-miterlimit="4" stroke-opacity="1" stroke-width="1" marker-end="none" marker-start="none" d="M 191.17137,403.33917 259.2304,471.3982"/><path id="path5701" fill="none" stroke="#000" stroke-linecap="butt" stroke-linejoin="miter" stroke-opacity="1" stroke-width="1" d="m 264.65997,465.46355 -7.95495,-7.95495 -5.93465,5.93465"/><text id="text8491" x="222.841" y="431.171" fill="#000" fill-opacity="1" stroke="none" font-family="Sans" font-size="17.187" font-style="normal" font-weight="normal" letter-spacing="0" transform="scale(0.95341781,1.0488581)" word-spacing="0" xml:space="preserve" style="line-height:125%"><tspan id="tspan8493" x="222.841" y="431.171">ρ</tspan></text><text id="text8495" x="241.602" y="356.614" fill="#000" fill-opacity="1" stroke="none" font-family="Sans" font-size="11.589" font-style="normal" font-weight="normal" letter-spacing="0" transform="scale(0.8575127,1.1661635)" word-spacing="0" xml:space="preserve" style="line-height:125%"><tspan id="tspan8497" x="241.602" y="356.614">θ</tspan></text><path id="path8910" fill="none" stroke="#000" stroke-dasharray="none" stroke-linejoin="miter" stroke-miterlimit="4" stroke-opacity="1" stroke-width=".467" marker-end="url(#Arrow1Send)" d="m 205.18489,403.44491 c -0.0814,1.73816 0.44467,3.57132 -0.24208,5.17013 -0.64958,1.51228 -2.24971,2.34519 -3.3891,3.53293"/></g></svg>